<svg viewBox="0 0 500 500" xmlns="http://www.w3.org/2000/svg">
  <defs>
    <mask id="letterMask">
      <rect width="500" height="500" fill="black"/>
      <!-- Main C shape -->
      <path d="M 250 80 A 170 170 0 1 1 250 420 A 170 170 0 0 1 250 80 Z M 250 165 A 85 85 0 0 0 250 335 A 85 85 0 0 0 335 250 L 420 250 A 170 170 0 0 1 250 420 Z" fill="white"/>
      
      <!-- Right side bars -->
      <rect x="280" y="230" width="12" height="8" fill="white" transform="rotate(0 286 234)"/>
      <rect x="295" y="232" width="12" height="8" fill="white" transform="rotate(10 301 236)"/>
      <rect x="310" y="235" width="10" height="8" fill="white" transform="rotate(-5 315 239)"/>
      <rect x="323" y="233" width="12" height="9" fill="white" transform="rotate(15 329 237)"/>
      <rect x="338" y="236" width="11" height="8" fill="white" transform="rotate(-10 343 240)"/>
      <rect x="352" y="234" width="12" height="9" fill="white" transform="rotate(5 358 238)"/>
      
      <rect x="280" y="263" width="11" height="8" fill="white" transform="rotate(12 285 267)"/>
      <rect x="293" y="265" width="12" height="8" fill="white" transform="rotate(-8 299 269)"/>
      <rect x="308" y="264" width="10" height="9" fill="white" transform="rotate(15 313 268)"/>
      <rect x="321" y="266" width="12" height="8" fill="white" transform="rotate(-12 327 270)"/>
      <rect x="336" y="264" width="11" height="9" fill="white" transform="rotate(8 341 268)"/>
      <rect x="350" y="267" width="12" height="8" fill="white" transform="rotate(-5 356 271)"/>
      
      <rect x="280" y="295" width="12" height="9" fill="white" transform="rotate(-10 286 299)"/>
      <rect x="295" y="297" width="11" height="8" fill="white" transform="rotate(14 300 301)"/>
      <rect x="309" y="296" width="12" height="8" fill="white" transform="rotate(-7 315 300)"/>
      <rect x="324" y="298" width="10" height="9" fill="white" transform="rotate(11 329 302)"/>
      <rect x="337" y="296" width="12" height="8" fill="white" transform="rotate(-13 343 300)"/>
      <rect x="352" y="299" width="11" height="9" fill="white" transform="rotate(6 357 303)"/>
    </mask>
  </defs>
  
  <rect width="500" height="500" fill="white"/>
  
  <!-- Generate mosaic tiles -->
  <g mask="url(#letterMask)">
    <!-- Top curve -->
    <rect x="145" y="95" width="14" height="9" fill="#C9B87C" transform="rotate(25 152 99)"/>
    <rect x="162" y="88" width="11" height="8" fill="#C9B87C" transform="rotate(-15 167 92)"/>
    <rect x="178" y="83" width="13" height="7" fill="#C9B87C" transform="rotate(35 184 86)"/>
    <rect x="194" y="79" width="10" height="9" fill="#C9B87C" transform="rotate(-25 199 83)"/>
    <rect x="208" y="77" width="12" height="8" fill="#C9B87C" transform="rotate(18 214 81)"/>
    <rect x="224" y="75" width="11" height="7" fill="#C9B87C" transform="rotate(-32 229 78)"/>
    <rect x="238" y="74" width="13" height="9" fill="#C9B87C" transform="rotate(22 244 78)"/>
    <rect x="254" y="74" width="10" height="8" fill="#C9B87C" transform="rotate(-18 259 78)"/>
    <rect x="268" y="75" width="12" height="7" fill="#C9B87C" transform="rotate(28 274 78)"/>
    <rect x="283" y="77" width="11" height="9" fill="#C9B87C" transform="rotate(-22 288 81)"/>
    <rect x="297" y="80" width="13" height="8" fill="#C9B87C" transform="rotate(16 303 84)"/>
    <rect x="312" y="84" width="10" height="7" fill="#C9B87C" transform="rotate(-28 317 87)"/>
    <rect x="325" y="88" width="12" height="9" fill="#C9B87C" transform="rotate(24 331 92)"/>
    <rect x="340" y="94" width="11" height="8" fill="#C9B87C" transform="rotate(-19 345 98)"/>
    <rect x="353" y="100" width="13" height="7" fill="#C9B87C" transform="rotate(31 359 103)"/>
    
    <!-- Left curve outer -->
    <rect x="128" y="112" width="12" height="8" fill="#C9B87C" transform="rotate(45 134 116)"/>
    <rect x="115" y="128" width="11" height="9" fill="#C9B87C" transform="rotate(-35 120 132)"/>
    <rect x="105" y="146" width="13" height="7" fill="#C9B87C" transform="rotate(52 111 149)"/>
    <rect x="97" y="164" width="10" height="8" fill="#C9B87C" transform="rotate(-42 102 168)"/>
    <rect x="91" y="182" width="12" height="9" fill="#C9B87C" transform="rotate(38 97 186)"/>
    <rect x="87" y="201" width="11" height="8" fill="#C9B87C" transform="rotate(-48 92 205)"/>
    <rect x="84" y="220" width="13" height="7" fill="#C9B87C" transform="rotate(44 90 223)"/>
    <rect x="83" y="238" width="10" height="9" fill="#C9B87C" transform="rotate(-38 88 242)"/>
    <rect x="83" y="257" width="12" height="8" fill="#C9B87C" transform="rotate(41 89 261)"/>
    <rect x="85" y="275" width="11" height="7" fill="#C9B87C" transform="rotate(-45 90 278)"/>
    <rect x="88" y="292" width="13" height="9" fill="#C9B87C" transform="rotate(36 94 296)"/>
    <rect x="93" y="310" width="10" height="8" fill="#C9B87C" transform="rotate(-51 98 314)"/>
    <rect x="100" y="327" width="12" height="7" fill="#C9B87C" transform="rotate(47 106 330)"/>
    <rect x="109" y="344" width="11" height="9" fill="#C9B87C" transform="rotate(-39 114 348)"/>
    <rect x="120" y="360" width="13" height="8" fill="#C9B87C" transform="rotate(33 126 364)"/>
    <rect x="133" y="375" width="10" height="7" fill="#C9B87C" transform="rotate(-46 138 378)"/>
    
    <!-- Bottom curve -->
    <rect x="148" y="388" width="12" height="9" fill="#C9B87C" transform="rotate(29 154 392)"/>
    <rect x="164" y="398" width="11" height="8" fill="#C9B87C" transform="rotate(-24 169 402)"/>
    <rect x="181" y="406" width="13" height="7" fill="#C9B87C" transform="rotate(19 187 409)"/>
    <rect x="198" y="412" width="10" height="9" fill="#C9B87C" transform="rotate(-33 203 416)"/>
    <rect x="213" y="416" width="12" height="8" fill="#C9B87C" transform="rotate(26 219 420)"/>
    <rect x="229" y="419" width="11" height="7" fill="#C9B87C" transform="rotate(-21 234 422)"/>
    <rect x="244" y="421" width="13" height="9" fill="#C9B87C" transform="rotate(17 250 425)"/>
    <rect x="260" y="421" width="10" height="8" fill="#C9B87C" transform="rotate(-29 265 425)"/>
    <rect x="274" y="420" width="12" height="7" fill="#C9B87C" transform="rotate(23 280 423)"/>
    <rect x="289" y="417" width="11" height="9" fill="#C9B87C" transform="rotate(-18 294 421)"/>
    <rect x="303" y="413" width="13" height="8" fill="#C9B87C" transform="rotate(31 309 417)"/>
    <rect x="318" y="407" width="10" height="7" fill="#C9B87C" transform="rotate(-26 323 410)"/>
    <rect x="331" y="400" width="12" height="9" fill="#C9B87C" transform="rotate(20 337 404)"/>
    <rect x="345" y="391" width="11" height="8" fill="#C9B87C" transform="rotate(-34 350 395)"/>
    <rect x="358" y="381" width="13" height="7" fill="#C9B87C" transform="rotate(27 364 384)"/>
    
    <!-- Right side outer -->
    <rect x="369" y="368" width="10" height="9" fill="#C9B87C" transform="rotate(-43 374 372)"/>
    <rect x="378" y="354" width="12" height="8" fill="#C9B87C" transform="rotate(35 384 358)"/>
    <rect x="386" y="339" width="11" height="7" fill="#C9B87C" transform="rotate(-49 391 342)"/>
    <rect x="393" y="323" width="13" height="9" fill="#C9B87C" transform="rotate(40 399 327)"/>
    <rect x="398" y="306" width="10" height="8" fill="#C9B87C" transform="rotate(-37 403 310)"/>
    <rect x="402" y="289" width="12" height="7" fill="#C9B87C" transform="rotate(44 408 292)"/>
    <rect x="405" y="271" width="11" height="9" fill="#C9B87C" transform="rotate(-41 410 275)"/>
    <rect x="406" y="253" width="13" height="8" fill="#C9B87C" transform="rotate(38 412 257)"/>
    <rect x="406" y="235" width="10" height="7" fill="#C9B87C" transform="rotate(-46 411 238)"/>
    <rect x="404" y="217" width="12" height="9" fill="#C9B87C" transform="rotate(32 410 221)"/>
    <rect x="400" y="200" width="11" height="8" fill="#C9B87C" transform="rotate(-50 405 204)"/>
    <rect x="395" y="183" width="13" height="7" fill="#C9B87C" transform="rotate(42 401 186)"/>
    <rect x="388" y="167" width="10" height="9" fill="#C9B87C" transform="rotate(-36 393 171)"/>
    <rect x="380" y="152" width="12" height="8" fill="#C9B87C" transform="rotate(29 386 156)"/>
    <rect x="370" y="138" width="11" height="7" fill="#C9B87C" transform="rotate(-44 375 141)"/>
    <rect x="359" y="125" width="13" height="9" fill="#C9B87C" transform="rotate(37 365 129)"/>
    
    <!-- Inner curve left -->
    <rect x="173" y="175" width="10" height="7" fill="#C9B87C" transform="rotate(-52 178 178)"/>
    <rect x="168" y="190" width="11" height="8" fill="#C9B87C" transform="rotate(48 173 194)"/>
    <rect x="165" y="206" width="9" height="7" fill="#C9B87C" transform="rotate(-42 169 209)"/>
    <rect x="163" y="222" width="10" height="8" fill="#C9B87C" transform="rotate(39 168 226)"/>
    <rect x="162" y="238" width="11" height="7" fill="#C9B87C" transform="rotate(-47 167 241)"/>
    <rect x="162" y="254" width="9" height="8" fill="#C9B87C" transform="rotate(43 166 258)"/>
    <rect x="163" y="270" width="10" height="7" fill="#C9B87C" transform="rotate(-38 168 273)"/>
    <rect x="165" y="285" width="11" height="8" fill="#C9B87C" transform="rotate(51 170 289)"/>
    <rect x="169" y="300" width="9" height="7" fill="#C9B87C" transform="rotate(-44 173 303)"/>
    <rect x="174" y="314" width="10" height="8" fill="#C9B87C" transform="rotate(36 179 318)"/>
    
    <!-- Middle fill -->
    <rect x="186" y="160" width="11" height="8" fill="#C9B87C" transform="rotate(25 191 164)"/>
    <rect x="199" y="155" width="10" height="7" fill="#C9B87C" transform="rotate(-31 204 158)"/>
    <rect x="212" y="152" width="12" height="9" fill="#C9B87C" transform="rotate(19 218 156)"/>
    <rect x="226" y="150" width="9" height="8" fill="#C9B87C" transform="rotate(-27 230 154)"/>
    <rect x="238" y="149" width="11" height="7" fill="#C9B87C" transform="rotate(33 243 152)"/>
    <rect x="251" y="149" width="10" height="8" fill="#C9B87C" transform="rotate(-22 256 153)"/>
    <rect x="264" y="150" width="12" height="7" fill="#C9B87C" transform="rotate(28 270 153)"/>
    <rect x="278" y="152" width="9" height="9" fill="#C9B87C" transform="rotate(-35 282 156)"/>
    <rect x="290" y="155" width="11" height="8" fill="#C9B87C" transform="rotate(21 295 159)"/>
    <rect x="303" y="159" width="10" height="7" fill="#C9B87C" transform="rotate(-29 308 162)"/>
    
    <rect x="187" y="178" width="10" height="8" fill="#C9B87C" transform="rotate(17 192 182)"/>
    <rect x="199" y="175" width="11" height="7" fill="#C9B87C" transform="rotate(-24 204 178)"/>
    <rect x="212" y="173" width="9" height="9" fill="#C9B87C" transform="rotate(32 216 177)"/>
    <rect x="223" y="172" width="12" height="8" fill="#C9B87C" transform="rotate(-19 229 176)"/>
    <rect x="237" y="171" width="10" height="7" fill="#C9B87C" transform="rotate(26 242 174)"/>
    <rect x="249" y="171" width="11" height="8" fill="#C9B87C" transform="rotate(-33 254 175)"/>
    <rect x="262" y="172" width="9" height="7" fill="#C9B87C" transform="rotate(23 266 175)"/>
    <rect x="274" y="174" width="12" height="9" fill="#C9B87C" transform="rotate(-28 280 178)"/>
    <rect x="288" y="177" width="10" height="8" fill="#C9B87C" transform="rotate(15 293 181)"/>
    <rect x="300" y="181" width="11" height="7" fill="#C9B87C" transform="rotate(-21 305 184)"/>
    <rect x="313" y="185" width="9" height="8" fill="#C9B87C" transform="rotate(29 317 189)"/>
    
    <!-- More middle rows -->
    <rect x="184" y="197" width="11" height="7" fill="#C9B87C" transform="rotate(-26 189 200)"/>
    <rect x="197" y="195" width="10" height="8" fill="#C9B87C" transform="rotate(20 202 199)"/>
    <rect x="209" y="194" width="12" height="7" fill="#C9B87C" transform="rotate(-34 215 197)"/>
    <rect x="223" y="193" width="9" height="9" fill="#C9B87C" transform="rotate(18 227 197)"/>
    <rect x="235" y="193" width="11" height="8" fill="#C9B87C" transform="rotate(-23 240 197)"/>
    <rect x="248" y="194" width="10" height="7" fill="#C9B87C" transform="rotate(31 253 197)"/>
    <rect x="261" y="195" width="12" height="8" fill="#C9B87C" transform="rotate(-17 267 199)"/>
    <rect x="275" y="197" width="9" height="7" fill="#C9B87C" transform="rotate(27 279 200)"/>
    <rect x="287" y="200" width="11" height="9" fill="#C9B87C" transform="rotate(-30 292 204)"/>
    <rect x="300" y="204" width="10" height="8" fill="#C9B87C" transform="rotate(22 305 208)"/>
    <rect x="313" y="209" width="12" height="7" fill="#C9B87C" transform="rotate(-25 319 212)"/>
    
    <rect x="182" y="218" width="10" height="8" fill="#C9B87C" transform="rotate(19 187 222)"/>
    <rect x="194" y="217" width="11" height="7" fill="#C9B87C" transform="rotate(-28 199 220)"/>
    <rect x="207" y="216" width="9" height="9" fill="#C9B87C" transform="rotate(24 211 220)"/>
    <rect x="219" y="216" width="12" height="8" fill="#C9B87C" transform="rotate(-32 225 220)"/>
    <rect x="233" y="216" width="10" height="7" fill="#C9B87C" transform="rotate(16 238 219)"/>
    <rect x="246" y="217" width="11" height="8" fill="#C9B87C" transform="rotate(-21 251 221)"/>
    <rect x="259" y="219" width="9" height="7" fill="#C9B87C" transform="rotate(29 263 222)"/>
    <rect x="271" y="221" width="12" height="9" fill="#C9B87C" transform="rotate(-26 277 225)"/>
    <rect x="285" y="225" width="10" height="8" fill="#C9B87C" transform="rotate(33 290 229)"/>
    <rect x="298" y="229" width="11" height="7" fill="#C9B87C" transform="rotate(-18 303 232)"/>
    <rect x="311" y="234" width="9" height="8" fill="#C9B87C" transform="rotate(23 315 238)"/>
    
    <rect x="180" y="285" width="11" height="8" fill="#C9B87C" transform="rotate(-22 185 289)"/>
    <rect x="193" y="286" width="10" height="7" fill="#C9B87C" transform="rotate(27 198 289)"/>
    <rect x="206" y="287" width="12" height="9" fill="#C9B87C" transform="rotate(-31 212 291)"/>
    <rect x="220" y="289" width="9" height="8" fill="#C9B87C" transform="rotate(19 224 293)"/>
    <rect x="232" y="291" width="11" height="7" fill="#C9B87C" transform="rotate(-25 237 294)"/>
    <rect x="245" y="293" width="10" height="8" fill="#C9B87C" transform="rotate(34 250 297)"/>
    <rect x="258" y="296" width="12" height="7" fill="#C9B87C" transform="rotate(-20 264 299)"/>
    <rect x="272" y="299" width="9" height="9" fill="#C9B87C" transform="rotate(26 276 303)"/>
    <rect x="284" y="303" width="11" height="8" fill="#C9B87C" transform="rotate(-29 289 307)"/>
    <rect x="297" y="308" width="10" height="7" fill="#C9B87C" transform="rotate(21 302 311)"/>
    <rect x="310" y="313" width="12" height="8" fill="#C9B87C" transform="rotate(-24 316 317)"/>
    
    <rect x="185" y="305" width="9" height="7" fill="#C9B87C" transform="rotate(30 189 308)"/>
    <rect x="197" y="307" width="11" height="8" fill="#C9B87C" transform="rotate(-18 202 311)"/>
    <rect x="210" y="309" width="10" height="7" fill="#C9B87C" transform="rotate(25 215 312)"/>
    <rect x="223" y="312" width="12" height="9" fill="#C9B87C" transform="rotate(-33 229 316)"/>
    <rect x="237" y="315" width="9" height="8" fill="#C9B87C" transform="rotate(17 241 319)"/>
    <rect x="249" y="318" width="11" height="7" fill="#C9B87C" transform="rotate(-28 254 321)"/>
    <rect x="262" y="321" width="10" height="8" fill="#C9B87C" transform="rotate(22 267 325)"/>
    <rect x="275" y="325" width="12" height="7" fill="#C9B87C" transform="rotate(-19 281 328)"/>
    <rect x="289" y="329" width="9" height="9" fill="#C9B87C" transform="rotate(31 293 333)"/>
    <rect x="301" y="334" width="11" height="8" fill="#C9B87C" transform="rotate(-23 306 338)"/>
    <rect x="314" y="339" width="10" height="7" fill="#C9B87C" transform="rotate(27 319 342)"/>
  </g>
</svg>


